# File created by Blade
# Date/Time:  Tue Jan 27 17:01:45 2015
#---------------------------------------------------------
:version 1.10
:name HOM
:units
  mass 1.0
  length 1.000000
  angle deg
:documentation
     Acclaim Skeleton File
:root
   axis xyz
   order TX TY TZ RX RY RZ
   position 0.000000 0.000000 0.000000
   orientation 0 0 0
:bonedata
   begin
      id 1
      name Spine_dum
      direction 0.000000 1.000000 0.000000
      length 7.539951
      axis 0.0 0.0 0.0 xyz
   end
   begin
      id 2
      name LeftUpLeg_dum
      direction 1.000000 0.000000 0.000000
      length 3.345476
      axis 0.0 0.0 0.0 xyz
   end
   begin
      id 3
      name RightUpLeg_dum
      direction -1.000000 0.000000 0.000000
      length 3.345476
      axis 0.0 0.0 0.0 xyz
   end
   begin
      id 4
      name Spine
      direction 0.000000 1.000000 0.000000
      length 0.000000
      axis 0.0 0.0 0.0 xyz
      dof rx ry rz
   end
   begin
      id 5
      name Spine_dum1
      direction 0.000000 1.000000 0.000000
      length 15.093809
      axis 0.0 0.0 0.0 xyz
   end
   begin
      id 6
      name Spine_dum2
      direction 0.000000 1.000000 0.000000
      length 9.738928
      axis 0.0 0.0 0.0 xyz
   end
   begin
      id 7
      name Spine_dum3
      direction 0.000000 1.000000 0.000000
      length 9.738928
      axis 0.0 0.0 0.0 xyz
   end
   begin
      id 8
      name Head
      direction 0.000000 1.000000 0.000000
      length 4.527550
      axis 0.0 0.0 0.0 xyz
      dof rx ry rz
   end
   begin
      id 9
      name LeftShoulder
      direction 1.000000 0.000000 0.000000
      length 7.084015
      axis 0.0 0.0 -90.0 xyz
      dof rx ry rz
   end
   begin
      id 10
      name LeftArm
      direction 1.000000 0.000000 0.000000
      length 10.259319
      axis 0.0 0.0 -90.0 xyz
      dof rx ry rz
   end
   begin
      id 11
      name LeftForeArm
      direction 1.000000 0.000000 0.000000
      length 9.896984
      axis 0.0 0.0 -90.0 xyz
      dof ry rz rx
   end
   begin
      id 12
      name LeftHand
      direction 0.000000 0.000000 0.000000
      length 0.000000
      axis 0.0 0.0 -90.0 xyz
      dof rx ry rz
   end
   begin
      id 13
      name LeftHand_dum1
      direction 0.000000 0.000000 0.000000
      length 0.000000
      axis 0.0 0.0 -90.0 xyz
   end
   begin
      id 14
      name LeftHand_dum2
      direction 1.000000 0.000000 0.000000
      length 3.937000
      axis 0.0 0.0 -90.0 xyz
   end
   begin
      id 15
      name LeftHandThumb1
      direction 0.000000 0.000000 1.000000
      length 3.937000
      axis 0.0 0.0 -90.0 xyz
      dof rx rz ry
   end
   begin
      id 16
      name RightShoulder
      direction -1.000000 0.000000 0.000000
      length 7.084015
      axis 0.0 0.0 90.0 xyz
      dof rx ry rz
   end
   begin
      id 17
      name RightArm
      direction -1.000000 0.000000 0.000000
      length 10.259319
      axis 0.0 0.0 90.0 xyz
      dof rx ry rz
   end
   begin
      id 18
      name RightForeArm
      direction -1.000000 0.000000 0.000000
      length 9.896984
      axis 0.0 0.0 90.0 xyz
      dof ry rz rx
   end
   begin
      id 19
      name RightHand
      direction 0.000000 0.000000 0.000000
      length 0.000000
      axis 0.0 0.0 90.0 xyz
      dof rx ry rz
   end
   begin
      id 20
      name RightHand_dum1
      direction 0.000000 0.000000 0.000000
      length 0.000000
      axis 0.0 0.0 90.0 xyz
   end
   begin
      id 21
      name RightHand_dum2
      direction -1.000000 0.000000 0.000000
      length 3.937000
      axis 0.0 0.0 90.0 xyz
   end
   begin
      id 22
      name RightHandThumb1
      direction 0.000000 0.000000 1.000000
      length 3.937000
      axis 0.0 0.0 90.0 xyz
      dof rx rz ry
   end
   begin
      id 23
      name LeftUpLeg
      direction 0.000000 -1.000000 0.000000
      length 19.114733
      axis 0.0 0.0 0.0 xyz
      dof rx ry rz
   end
   begin
      id 24
      name LeftLeg
      direction 0.000000 -1.000000 0.000000
      length 16.045604
      axis 0.0 0.0 0.0 xyz
      dof rx ry rz
   end
   begin
      id 25
      name LeftFoot
      direction 0.000000 -0.258819 0.965926
      length 5.543155
      axis 15.0 0.0 0.0 xyz
      dof rx ry rz
   end
   begin
      id 26
      name LeftToeBase
      direction 0.000000 0.000000 1.000000
      length 2.952750
      axis 0.0 0.0 0.0 xyz
      dof rx ry rz
   end
   begin
      id 27
      name RightUpLeg
      direction 0.000000 -1.000000 0.000000
      length 19.114733
      axis 0.0 0.0 0.0 xyz
      dof rx ry rz
   end
   begin
      id 28
      name RightLeg
      direction 0.000000 -1.000000 0.000000
      length 16.045604
      axis 0.0 0.0 0.0 xyz
      dof rx ry rz
   end
   begin
      id 29
      name RightFoot
      direction 0.000000 -0.258819 0.965926
      length 5.543155
      axis 15.0 0.0 0.0 xyz
      dof rx ry rz
   end
   begin
      id 30
      name RightToeBase
      direction 0.000000 0.000000 1.000000
      length 2.952750
      axis 0.0 0.0 0.0 xyz
      dof rx ry rz
   end
:hierarchy
   begin
      root Spine_dum LeftUpLeg_dum RightUpLeg_dum
      Spine_dum Spine
      LeftUpLeg_dum LeftUpLeg
      RightUpLeg_dum RightUpLeg
      Spine Spine_dum1 Spine_dum2 Spine_dum3
      Spine_dum1 Head
      Spine_dum2 LeftShoulder
      Spine_dum3 RightShoulder
      LeftShoulder LeftArm
      LeftArm LeftForeArm
      LeftForeArm LeftHand
      LeftHand LeftHand_dum1 LeftHand_dum2
      LeftHand_dum1 LeftHandThumb1
      RightShoulder RightArm
      RightArm RightForeArm
      RightForeArm RightHand
      RightHand RightHand_dum1 RightHand_dum2
      RightHand_dum1 RightHandThumb1
      LeftUpLeg LeftLeg
      LeftLeg LeftFoot
      LeftFoot LeftToeBase
      RightUpLeg RightLeg
      RightLeg RightFoot
      RightFoot RightToeBase
   end

# File created by Blade
# Date/Time:  Tue Jan 27 17:01:38 2015
# Frame Rate: 120.000 fps
#------------------------------------------------------
:FULLY-SPECIFIED
:DEGREES
1691
root -1.248188 36.874974 4.897237 7.732024 -0.547128 -1.027005
Spine -4.823283 5.314873 -4.282102
Head -0.775426 7.594623 2.556175
LeftShoulder -1.418738 -4.153454 -3.574723
LeftArm -5.503406 -30.372433 -63.074688
LeftForeArm -62.273693 -0.000000 104.370793
LeftHand 1.870106 -0.000000 -12.752725
LeftHandThumb1 -26.253704 0.000000 33.147579
RightShoulder -0.924073 -21.588063 -1.186560
RightArm 25.937365 -33.722007 52.198909
RightForeArm -148.293744 -0.000000 33.934925
RightHand -0.963342 -0.000000 -2.535161
RightHandThumb1 -24.326973 -0.000000 -32.862282
LeftUpLeg -5.582239 13.942808 5.014442
LeftLeg 7.475284 -0.000000 -0.000000
LeftFoot -16.349418 3.481421 -21.317536
LeftToeBase 14.953149 -0.000000 -0.000000
RightUpLeg -7.995033 -9.210772 0.012637
RightLeg 10.649675 -0.000000 -0.000000
RightFoot -15.846353 -3.798635 13.455516
RightToeBase 11.085062 -0.000000 -0.000000
1692
root -1.252122 36.875285 4.897949 7.762580 -0.568099 -1.013334
Spine -4.821170 5.350501 -4.409809
Head -0.851391 7.413976 2.688693
LeftShoulder -1.497106 -4.093094 -3.585598
LeftArm -5.434284 -30.528970 -63.011011
LeftForeArm -61.518542 0.000000 106.063941
LeftHand 2.026975 -0.000000 -13.297362
LeftHandThumb1 -26.253704 0.000000 33.147579
RightShoulder -0.945766 -21.597652 -1.200926
RightArm 25.963902 -33.762235 52.232443
RightForeArm -148.333142 -0.000000 34.104342
RightHand -1.010653 -0.000000 -2.598504
RightHandThumb1 -24.326973 -0.000000 -32.862282
LeftUpLeg -5.603241 13.970818 4.996442
LeftLeg 7.461219 -0.000000 -0.000000
LeftFoot -16.330982 3.485500 -21.307700
LeftToeBase 14.944511 -0.000000 -0.000000
RightUpLeg -8.022507 -9.189942 0.005038
RightLeg 10.645336 -0.000000 -0.000000
RightFoot -15.858776 -3.839855 13.440312
RightToeBase 11.096828 -0.000000 -0.000000
1693
root -1.256677 36.875348 4.900065 7.776941 -0.586069 -1.023855
Spine -4.807270 5.389963 -4.503446
Head -0.901914 7.246391 2.802984
LeftShoulder -1.589299 -4.084771 -3.573076
LeftArm -5.369326 -30.618111 -62.912047
LeftForeArm -60.722290 -0.000000 107.780786
LeftHand 2.199878 0.000000 -13.833300
LeftHandThumb1 -26.253704 0.000000 33.147579
RightShoulder -0.950059 -21.594867 -1.210438
RightArm 25.964352 -33.822948 52.221988
RightForeArm -148.210693 -0.000000 34.303666
RightHand -0.960919 -0.000000 -2.674713
RightHandThumb1 -24.326973 -0.000000 -32.862282
LeftUpLeg -5.607113 13.998688 5.009579
LeftLeg 7.451918 -0.000000 -0.000000
LeftFoot -16.324002 3.489573 -21.292317
LeftToeBase 14.916115 -0.000000 -0.000000
RightUpLeg -8.034862 -9.199513 0.027122
RightLeg 10.640414 -0.000000 -0.000000
RightFoot -15.839332 -3.837430 13.422543
RightToeBase 11.026618 -0.000000 -0.000000
1694
root -1.262273 36.875312 4.901150 7.788548 -0.595424 -1.036472
Spine -4.790124 5.419025 -4.592741
Head -0.931869 7.075270 2.901547
LeftShoulder -1.663875 -4.113281 -3.546257
LeftArm -5.316384 -30.681697 -62.782142
LeftForeArm -60.063125 -0.000000 109.557761
LeftHand 2.501963 -0.000000 -14.254059
LeftHandThumb1 -26.253704 0.000000 33.147579
RightShoulder -0.942993 -21.606764 -1.236214
RightArm 25.985892 -33.869338 52.227967
RightForeArm -148.153315 0.000000 34.483858
RightHand -0.968168 -0.000000 -2.672445
RightHandThumb1 -24.326973 -0.000000 -32.862282
LeftUpLeg -5.611190 14.007890 5.027267
LeftLeg 7.442638 -0.000000 -0.000000
LeftFoot -16.322204 3.489003 -21.307770
LeftToeBase 14.916147 -0.000000 -0.000000
RightUpLeg -8.038091 -9.204910 0.051455
RightLeg 10.621911 -0.000000 -0.000000
RightFoot -15.826172 -3.828816 13.419603
RightToeBase 11.055001 -0.000000 -0.000000
